<mxfile host="Electron" agent="Mozilla/5.0 (Windows NT 10.0; Win64; x64) AppleWebKit/537.36 (KHTML, like Gecko) draw.io/26.2.2 Chrome/134.0.6998.178 Electron/35.1.2 Safari/537.36" version="26.2.2" pages="3">
  <diagram name="full" id="dZzOITv1hi7rlCNjLrVU">
    <mxGraphModel dx="1159" dy="607" grid="1" gridSize="10" guides="1" tooltips="1" connect="1" arrows="1" fold="1" page="1" pageScale="1" pageWidth="850" pageHeight="1100" math="0" shadow="0">
      <root>
        <mxCell id="0" />
        <mxCell id="1" parent="0" />
        <mxCell id="PfXs2JRaWIOhIZIZ-pXQ-11" style="edgeStyle=orthogonalEdgeStyle;rounded=0;orthogonalLoop=1;jettySize=auto;html=1;entryX=0;entryY=0.5;entryDx=0;entryDy=0;" parent="1" source="PfXs2JRaWIOhIZIZ-pXQ-2" target="PfXs2JRaWIOhIZIZ-pXQ-9" edge="1">
          <mxGeometry relative="1" as="geometry" />
        </mxCell>
        <mxCell id="PfXs2JRaWIOhIZIZ-pXQ-2" value="House data" style="rounded=0;whiteSpace=wrap;html=1;" parent="1" vertex="1">
          <mxGeometry x="80" y="180" width="80" height="20" as="geometry" />
        </mxCell>
        <mxCell id="PfXs2JRaWIOhIZIZ-pXQ-10" style="edgeStyle=orthogonalEdgeStyle;rounded=0;orthogonalLoop=1;jettySize=auto;html=1;exitX=1;exitY=0.5;exitDx=0;exitDy=0;entryX=0;entryY=0.5;entryDx=0;entryDy=0;" parent="1" source="PfXs2JRaWIOhIZIZ-pXQ-3" target="PfXs2JRaWIOhIZIZ-pXQ-9" edge="1">
          <mxGeometry relative="1" as="geometry" />
        </mxCell>
        <mxCell id="PfXs2JRaWIOhIZIZ-pXQ-3" value="House data" style="rounded=0;whiteSpace=wrap;html=1;" parent="1" vertex="1">
          <mxGeometry x="80" y="120" width="80" height="20" as="geometry" />
        </mxCell>
        <mxCell id="PfXs2JRaWIOhIZIZ-pXQ-6" value="..." style="text;html=1;align=center;verticalAlign=middle;whiteSpace=wrap;rounded=0;fontSize=20;" parent="1" vertex="1">
          <mxGeometry x="90" y="140" width="60" height="30" as="geometry" />
        </mxCell>
        <mxCell id="PfXs2JRaWIOhIZIZ-pXQ-8" value="MQTT pubisher" style="swimlane;whiteSpace=wrap;html=1;" parent="1" vertex="1">
          <mxGeometry x="70" y="90" width="100" height="120" as="geometry" />
        </mxCell>
        <mxCell id="PfXs2JRaWIOhIZIZ-pXQ-9" value="MQTT broker" style="shape=process;whiteSpace=wrap;html=1;backgroundOutline=1;" parent="1" vertex="1">
          <mxGeometry x="200" y="130" width="120" height="60" as="geometry" />
        </mxCell>
        <mxCell id="PfXs2JRaWIOhIZIZ-pXQ-12" value="Apache" style="rounded=0;whiteSpace=wrap;html=1;" parent="1" vertex="1">
          <mxGeometry x="370" y="400" width="120" height="60" as="geometry" />
        </mxCell>
      </root>
    </mxGraphModel>
  </diagram>
  <diagram id="nQLmRad-1knp0SZ6Q9dp" name="state-discretization">
    <mxGraphModel dx="1030" dy="631" grid="1" gridSize="10" guides="1" tooltips="1" connect="1" arrows="1" fold="1" page="1" pageScale="1" pageWidth="850" pageHeight="1100" math="0" shadow="0">
      <root>
        <mxCell id="0" />
        <mxCell id="1" parent="0" />
        <mxCell id="XIaXjfhC_mMfA6cF7CGS-1" value="Memory Usage&lt;div&gt;(70%, 80%,...)&lt;/div&gt;" style="rounded=0;whiteSpace=wrap;html=1;" parent="1" vertex="1">
          <mxGeometry x="110" y="240" width="160" height="40" as="geometry" />
        </mxCell>
        <mxCell id="XIaXjfhC_mMfA6cF7CGS-9" style="edgeStyle=orthogonalEdgeStyle;rounded=0;orthogonalLoop=1;jettySize=auto;html=1;entryX=0;entryY=0.5;entryDx=0;entryDy=0;" parent="1" source="XIaXjfhC_mMfA6cF7CGS-4" target="XIaXjfhC_mMfA6cF7CGS-8" edge="1">
          <mxGeometry relative="1" as="geometry">
            <mxPoint x="350" y="340" as="targetPoint" />
          </mxGeometry>
        </mxCell>
        <mxCell id="XIaXjfhC_mMfA6cF7CGS-4" value="Continuous" style="swimlane;whiteSpace=wrap;html=1;" parent="1" vertex="1">
          <mxGeometry x="100" y="210" width="180" height="260" as="geometry" />
        </mxCell>
        <mxCell id="XIaXjfhC_mMfA6cF7CGS-3" value="Number of supervisors&lt;div&gt;(1, 2,..., 5)&lt;/div&gt;" style="rounded=0;whiteSpace=wrap;html=1;" parent="XIaXjfhC_mMfA6cF7CGS-4" vertex="1">
          <mxGeometry x="10" y="210" width="160" height="40" as="geometry" />
        </mxCell>
        <mxCell id="5xx9c7VVXwqDSF38ih0r-1" value="Spout messages emitted&lt;div&gt;(500, 700, 3.000,...)&lt;/div&gt;" style="rounded=0;whiteSpace=wrap;html=1;" parent="XIaXjfhC_mMfA6cF7CGS-4" vertex="1">
          <mxGeometry x="10" y="150" width="160" height="40" as="geometry" />
        </mxCell>
        <mxCell id="XIaXjfhC_mMfA6cF7CGS-2" value="Previous spout messages emitted&amp;nbsp;&lt;span style=&quot;background-color: transparent; color: light-dark(rgb(0, 0, 0), rgb(255, 255, 255));&quot;&gt;(500, 700, 3.000,...)&lt;/span&gt;" style="rounded=0;whiteSpace=wrap;html=1;" parent="XIaXjfhC_mMfA6cF7CGS-4" vertex="1">
          <mxGeometry x="10" y="90" width="160" height="40" as="geometry" />
        </mxCell>
        <mxCell id="XIaXjfhC_mMfA6cF7CGS-5" value="Memory Usage&lt;div&gt;10 bins&amp;nbsp;&lt;span style=&quot;background-color: transparent; color: light-dark(rgb(0, 0, 0), rgb(255, 255, 255));&quot;&gt;(1, 2,..., 10)&amp;nbsp;&lt;/span&gt;&lt;/div&gt;" style="rounded=0;whiteSpace=wrap;html=1;" parent="1" vertex="1">
          <mxGeometry x="370" y="240" width="160" height="40" as="geometry" />
        </mxCell>
        <mxCell id="XIaXjfhC_mMfA6cF7CGS-8" value="Discrete" style="swimlane;whiteSpace=wrap;html=1;" parent="1" vertex="1">
          <mxGeometry x="360" y="210" width="180" height="260" as="geometry" />
        </mxCell>
        <mxCell id="XIaXjfhC_mMfA6cF7CGS-7" value="Number of supervisors&lt;div&gt;(1, 2,..., 5)&lt;/div&gt;" style="rounded=0;whiteSpace=wrap;html=1;" parent="XIaXjfhC_mMfA6cF7CGS-8" vertex="1">
          <mxGeometry x="10" y="210" width="160" height="40" as="geometry" />
        </mxCell>
        <mxCell id="5xx9c7VVXwqDSF38ih0r-2" value="Spout messages emitted - 20 bins&amp;nbsp;&lt;span style=&quot;background-color: transparent; color: light-dark(rgb(0, 0, 0), rgb(255, 255, 255));&quot;&gt;(1, 2,..., 20)&lt;/span&gt;" style="rounded=0;whiteSpace=wrap;html=1;" parent="XIaXjfhC_mMfA6cF7CGS-8" vertex="1">
          <mxGeometry x="10" y="150" width="160" height="40" as="geometry" />
        </mxCell>
        <mxCell id="XIaXjfhC_mMfA6cF7CGS-6" value="Previous spout messages emitted -&amp;nbsp;&lt;span style=&quot;background-color: transparent; color: light-dark(rgb(0, 0, 0), rgb(255, 255, 255));&quot;&gt;20 bins&amp;nbsp;&lt;/span&gt;&lt;span style=&quot;background-color: transparent; color: light-dark(rgb(0, 0, 0), rgb(255, 255, 255));&quot;&gt;(1, 2,..., 20)&lt;/span&gt;" style="rounded=0;whiteSpace=wrap;html=1;" parent="XIaXjfhC_mMfA6cF7CGS-8" vertex="1">
          <mxGeometry x="10" y="90" width="160" height="40" as="geometry" />
        </mxCell>
      </root>
    </mxGraphModel>
  </diagram>
  <diagram id="BLWnXZ_g68re7PKZhedQ" name="training-flow">
    <mxGraphModel dx="1159" dy="607" grid="1" gridSize="10" guides="1" tooltips="1" connect="1" arrows="1" fold="1" page="1" pageScale="1" pageWidth="850" pageHeight="1100" math="0" shadow="0">
      <root>
        <mxCell id="0" />
        <mxCell id="1" parent="0" />
        <mxCell id="QmpEzRAYWnrkLa1vq0NU-1" value="Episode" style="swimlane;whiteSpace=wrap;html=1;" parent="1" vertex="1">
          <mxGeometry x="330" y="330" width="200" height="200" as="geometry" />
        </mxCell>
        <mxCell id="QmpEzRAYWnrkLa1vq0NU-2" value="Environment reset" style="rounded=0;whiteSpace=wrap;html=1;" parent="1" vertex="1">
          <mxGeometry x="370" y="400" width="120" height="60" as="geometry" />
        </mxCell>
      </root>
    </mxGraphModel>
  </diagram>
</mxfile>
